<svg xmlns="http://www.w3.org/2000/svg" width="40" height="40" viewBox="0 0 40 40" fill="none">
  <path d="M24.2159 3.57617C25.325 3.57617 26.3558 4.14801 26.9429 5.08904L29.1158 8.57182H32.5C35.0642 8.57182 37.1429 10.6505 37.1429 13.2147V31.0718C37.1429 33.636 35.0642 35.7147 32.5 35.7147H7.50003C4.93586 35.7147 2.85718 33.636 2.85718 31.0718V13.2147C2.85718 10.6505 4.93586 8.57182 7.50003 8.57182H11.1693L13.1444 5.17482C13.7199 4.18511 14.7783 3.57617 15.9232 3.57617H24.2159ZM20 13.5757C15.6607 13.5757 12.1429 17.0934 12.1429 21.4328C12.1429 25.7722 15.6607 29.2899 20 29.2899C24.3394 29.2899 27.8572 25.7722 27.8572 21.4328C27.8572 17.0934 24.3394 13.5757 20 13.5757ZM20 15.7185C23.1559 15.7185 25.7143 18.2769 25.7143 21.4328C25.7143 24.5887 23.1559 27.1471 20 27.1471C16.8441 27.1471 14.2857 24.5887 14.2857 21.4328C14.2857 18.2769 16.8441 15.7185 20 15.7185Z" fill="#8C95A0"/>
</svg>