<svg xmlns="http://www.w3.org/2000/svg" width="13" height="13" viewBox="0 0 13 13" fill="none">
  <path d="M6.5025 0.0839844C3.01397 0.0839844 0.1875 2.91046 0.1875 6.39898C0.1875 9.88751 3.01397 12.714 6.5025 12.714C9.99103 12.714 12.8175 9.88751 12.8175 6.39898C12.8175 2.91046 9.99103 0.0839844 6.5025 0.0839844ZM12.0027 6.39898C12.0027 9.42153 9.5556 11.8991 6.5025 11.8991C3.47996 11.8991 1.00234 9.45208 1.00234 6.39898C1.00234 3.37644 3.4494 0.898823 6.5025 0.898823C9.52504 0.898823 12.0027 3.34589 12.0027 6.39898ZM8.21111 8.64743L6.14346 7.14507C6.06452 7.0865 6.01869 6.99484 6.01869 6.89807V2.83406C6.01869 2.666 6.15619 2.5285 6.32425 2.5285H6.68075C6.84881 2.5285 6.98631 2.666 6.98631 2.83406V6.55941L8.7815 7.86569C8.91901 7.965 8.94702 8.15598 8.84771 8.29348L8.63891 8.58122C8.5396 8.71618 8.34862 8.74674 8.21111 8.64743Z" fill="#5272E9"/>
</svg>