<svg width="30" height="30" viewBox="0 0 30 30" fill="none" xmlns="http://www.w3.org/2000/svg">
<path d="M27 15C27 8.3719 21.6281 3 15 3C8.3719 3 3 8.3719 3 15C3 20.9907 7.3875 25.9547 13.125 26.8547V18.4688H10.0781V15H13.125V12.3562C13.125 9.3492 14.9156 7.6875 17.6578 7.6875C18.9703 7.6875 20.3438 7.92188 20.3438 7.92188V10.875H18.8297C17.3391 10.875 16.875 11.8008 16.875 12.75V15H20.2031L19.6711 18.4688H16.875V26.8547C22.6125 25.9547 27 20.9907 27 15Z" fill="#98A4B1"/>
<path d="M19.6711 18.4688L20.2031 15H16.875V12.75C16.875 11.8008 17.3391 10.875 18.8297 10.875H20.3438V7.92188C20.3438 7.92188 18.9703 7.6875 17.6578 7.6875C14.9157 7.6875 13.125 9.3492 13.125 12.3562V15H10.0781V18.4688H13.125V26.8547C13.7367 26.9508 14.3625 27 15 27C15.6375 27 16.2633 26.9508 16.875 26.8547V18.4688H19.6711Z" fill="white"/>
</svg>
