<svg width="30" height="30" viewBox="0 0 30 30" fill="none" xmlns="http://www.w3.org/2000/svg">
<path d="M19.5471 3.75H10.4529C6.75689 3.75 3.75 6.75689 3.75 10.4529V19.5471C3.75 23.2431 6.75689 26.25 10.4529 26.25H19.5471C23.2431 26.25 26.25 23.2431 26.25 19.5471V10.4529C26.25 6.75689 23.2431 3.75 19.5471 3.75ZM23.9865 19.5471C23.9865 21.9989 21.9989 23.9865 19.5471 23.9865H10.4529C8.00109 23.9865 6.0135 21.9989 6.0135 19.5471V10.4529C6.0135 8.00105 8.00109 6.0135 10.4529 6.0135H19.5471C21.9989 6.0135 23.9865 8.00105 23.9865 10.4529V19.5471Z" fill="#98A4B1"/>
<path d="M15 9.18066C11.7912 9.18066 9.18066 11.7912 9.18066 14.9999C9.18066 18.2086 11.7912 20.8192 15 20.8192C18.2087 20.8192 20.8193 18.2087 20.8193 14.9999C20.8193 11.7912 18.2087 9.18066 15 9.18066ZM15 18.5558C13.0361 18.5558 11.4442 16.9638 11.4442 15C11.4442 13.0361 13.0362 11.4442 15 11.4442C16.9638 11.4442 18.5558 13.0361 18.5558 15C18.5558 16.9638 16.9638 18.5558 15 18.5558Z" fill="#98A4B1"/>
<path d="M20.8305 10.6189C21.6006 10.6189 22.2249 9.99462 22.2249 9.2245C22.2249 8.45438 21.6006 7.83008 20.8305 7.83008C20.0603 7.83008 19.436 8.45438 19.436 9.2245C19.436 9.99462 20.0603 10.6189 20.8305 10.6189Z" fill="#98A4B1"/>
</svg>
