<svg width="30" height="30" viewBox="0 0 30 30" fill="none" xmlns="http://www.w3.org/2000/svg">
<path d="M24.6429 3.75H5.35212C4.46819 3.75 3.75 4.47824 3.75 5.37221V24.6278C3.75 25.5218 4.46819 26.25 5.35212 26.25H24.6429C25.5268 26.25 26.25 25.5218 26.25 24.6278V5.37221C26.25 4.47824 25.5268 3.75 24.6429 3.75ZM10.5502 23.0357H7.2154V12.298H10.5552V23.0357H10.5502ZM8.88281 10.8315C7.81306 10.8315 6.94922 9.96261 6.94922 8.89788C6.94922 7.83315 7.81306 6.96429 8.88281 6.96429C9.94754 6.96429 10.8164 7.83315 10.8164 8.89788C10.8164 9.96763 9.95257 10.8315 8.88281 10.8315ZM23.0508 23.0357H19.716V17.8125C19.716 16.567 19.6908 14.9648 17.9833 14.9648C16.2455 14.9648 15.9794 16.3209 15.9794 17.7221V23.0357H12.6445V12.298H15.8438V13.7645H15.889C16.3359 12.9208 17.4258 12.0318 19.048 12.0318C22.423 12.0318 23.0508 14.2567 23.0508 17.1496V23.0357Z" fill="#98A4B1"/>
</svg>
