<svg width="111" height="30" viewBox="0 0 111 30" fill="none" xmlns="http://www.w3.org/2000/svg">
    <path
        d="M20.5424 10.7451C21.9824 10.7451 23.3387 11.3064 24.3587 12.3251C25.3774 13.3451 25.9412 14.7001 25.9412 16.1451C25.9412 17.5901 25.3787 18.9439 24.3562 19.9651C23.3399 20.9839 21.9837 21.5476 20.5399 21.5476C19.0962 21.5476 17.7424 20.9864 16.7212 19.9651L15.0012 18.3151L13.2574 19.9876C12.2612 20.9864 10.9049 21.5476 9.46244 21.5476C8.01994 21.5476 6.66369 20.9864 5.64494 19.9639C4.62619 18.9476 4.06369 17.5901 4.06369 16.1476C4.06369 14.7051 4.62619 13.3514 5.64744 12.3276C6.66494 11.3114 8.01994 10.7451 9.46369 10.7451C10.9062 10.7451 12.2624 11.3064 13.2824 12.3276L15.0012 13.9776L16.7462 12.3026C17.7437 11.3064 19.0987 10.7451 20.5424 10.7451ZM20.5424 8.24512C18.4437 8.24512 16.4799 9.05137 15.0012 10.5114C13.5474 9.06262 11.5687 8.24512 9.46369 8.24512C7.35369 8.24512 5.37119 9.06637 3.87994 10.5614C2.38744 12.0514 1.56494 14.0364 1.56494 16.1476C1.56494 18.2589 2.38744 20.2401 3.87994 21.7326C5.36869 23.2226 7.35369 24.0476 9.46494 24.0476C11.5637 24.0476 13.5287 23.2414 15.0037 21.7801C16.4574 23.2301 18.4362 24.0476 20.5424 24.0476C22.6537 24.0476 24.6374 23.2251 26.1287 21.7301C27.6199 20.2451 28.4437 18.2601 28.4437 16.1464C28.4437 14.0364 27.6212 12.0539 26.1287 10.5589C24.6324 9.06512 22.6499 8.24512 20.5424 8.24512ZM9.46369 15.1201C9.74494 15.1201 9.99619 15.2301 10.2287 15.4589L10.9412 16.1439L10.1874 16.8676C10.0112 17.0451 9.74744 17.1464 9.46494 17.1464C9.18119 17.1464 8.91744 17.0464 8.73994 16.8676C8.54619 16.6739 8.43994 16.4176 8.43994 16.1451C8.43994 15.8689 8.54494 15.6176 8.74369 15.4189C8.93869 15.2251 9.18744 15.1201 9.46369 15.1201ZM9.46369 13.8701C8.85619 13.8701 8.28619 14.1064 7.85744 14.5364C7.42619 14.9689 7.18869 15.5376 7.18869 16.1451C7.18869 16.7501 7.42494 17.3214 7.85494 17.7514C8.28494 18.1814 8.87369 18.3964 9.46369 18.3964C10.0524 18.3964 10.6412 18.1814 11.0699 17.7514L12.7437 16.1451L11.0924 14.5576C10.6424 14.1064 10.0712 13.8701 9.46369 13.8701ZM20.5424 15.1414C20.8274 15.1414 21.0899 15.2414 21.2624 15.4151C21.4599 15.6139 21.5649 15.8639 21.5649 16.1426C21.5649 16.4214 21.4612 16.6701 21.2612 16.8689C21.0812 17.0514 20.8212 17.1539 20.5474 17.1539C20.2599 17.1539 19.9924 17.0439 19.7762 16.8276L19.0624 16.1426L19.8162 15.4201C19.9924 15.2414 20.2574 15.1414 20.5424 15.1414ZM20.5424 13.8914C19.9524 13.8914 19.3637 14.1064 18.9337 14.5364L17.2587 16.1426L18.9112 17.7301C19.3637 18.1814 19.9587 18.4039 20.5499 18.4039C21.1399 18.4039 21.7212 18.1826 22.1487 17.7526C22.5812 17.3226 22.8162 16.7514 22.8162 16.1439C22.8162 15.5364 22.5812 14.9676 22.1512 14.5351C21.7187 14.1051 21.1299 13.8914 20.5424 13.8914Z"
        fill="black" />
    <path
        d="M33.82 22L40.06 8H43.26L49.52 22H46.12L41 9.64H42.28L37.14 22H33.82ZM36.94 19L37.8 16.54H45L45.88 19H36.94ZM55.2748 22.16C54.2615 22.16 53.3482 21.9333 52.5348 21.48C51.7215 21.0133 51.0748 20.3667 50.5948 19.54C50.1282 18.7133 49.8948 17.74 49.8948 16.62C49.8948 15.4867 50.1282 14.5067 50.5948 13.68C51.0748 12.8533 51.7215 12.2133 52.5348 11.76C53.3482 11.3067 54.2615 11.08 55.2748 11.08C56.1815 11.08 56.9748 11.28 57.6548 11.68C58.3348 12.08 58.8615 12.6867 59.2348 13.5C59.6082 14.3133 59.7948 15.3533 59.7948 16.62C59.7948 17.8733 59.6148 18.9133 59.2548 19.74C58.8948 20.5533 58.3748 21.16 57.6948 21.56C57.0282 21.96 56.2215 22.16 55.2748 22.16ZM55.8148 19.6C56.3215 19.6 56.7815 19.48 57.1948 19.24C57.6082 19 57.9348 18.66 58.1748 18.22C58.4282 17.7667 58.5548 17.2333 58.5548 16.62C58.5548 15.9933 58.4282 15.46 58.1748 15.02C57.9348 14.58 57.6082 14.24 57.1948 14C56.7815 13.76 56.3215 13.64 55.8148 13.64C55.2948 13.64 54.8282 13.76 54.4148 14C54.0015 14.24 53.6682 14.58 53.4148 15.02C53.1748 15.46 53.0548 15.9933 53.0548 16.62C53.0548 17.2333 53.1748 17.7667 53.4148 18.22C53.6682 18.66 54.0015 19 54.4148 19.24C54.8282 19.48 55.2948 19.6 55.8148 19.6ZM58.6348 22V19.8L58.6948 16.6L58.4948 13.42V7.16H61.6148V22H58.6348ZM67.4225 22L62.9025 11.24H66.1225L69.8825 20.5H68.2825L72.1825 11.24H75.1825L70.6425 22H67.4225ZM76.4556 22V11.24H79.5756V22H76.4556ZM78.0156 9.74C77.4423 9.74 76.9756 9.57333 76.6156 9.24C76.2556 8.90667 76.0756 8.49333 76.0756 8C76.0756 7.50667 76.2556 7.09333 76.6156 6.76C76.9756 6.42667 77.4423 6.26 78.0156 6.26C78.589 6.26 79.0556 6.42 79.4156 6.74C79.7756 7.04667 79.9556 7.44667 79.9556 7.94C79.9556 8.46 79.7756 8.89333 79.4156 9.24C79.069 9.57333 78.6023 9.74 78.0156 9.74ZM87.6713 22.16C86.5113 22.16 85.4779 21.9267 84.5713 21.46C83.6646 20.98 82.9513 20.32 82.4313 19.48C81.9246 18.64 81.6713 17.6867 81.6713 16.62C81.6713 15.54 81.9246 14.5867 82.4313 13.76C82.9513 12.92 83.6646 12.2667 84.5713 11.8C85.4779 11.32 86.5113 11.08 87.6713 11.08C88.8046 11.08 89.7913 11.32 90.6313 11.8C91.4713 12.2667 92.0913 12.94 92.4913 13.82L90.0713 15.12C89.7913 14.6133 89.4379 14.24 89.0113 14C88.5979 13.76 88.1446 13.64 87.6513 13.64C87.1179 13.64 86.6379 13.76 86.2113 14C85.7846 14.24 85.4446 14.58 85.1913 15.02C84.9513 15.46 84.8313 15.9933 84.8313 16.62C84.8313 17.2467 84.9513 17.78 85.1913 18.22C85.4446 18.66 85.7846 19 86.2113 19.24C86.6379 19.48 87.1179 19.6 87.6513 19.6C88.1446 19.6 88.5979 19.4867 89.0113 19.26C89.4379 19.02 89.7913 18.64 90.0713 18.12L92.4913 19.44C92.0913 20.3067 91.4713 20.98 90.6313 21.46C89.7913 21.9267 88.8046 22.16 87.6713 22.16ZM99.4909 22.16C98.2643 22.16 97.1843 21.92 96.2509 21.44C95.3309 20.96 94.6176 20.3067 94.1109 19.48C93.6043 18.64 93.3509 17.6867 93.3509 16.62C93.3509 15.54 93.5976 14.5867 94.0909 13.76C94.5976 12.92 95.2843 12.2667 96.1509 11.8C97.0176 11.32 97.9976 11.08 99.0909 11.08C100.144 11.08 101.091 11.3067 101.931 11.76C102.784 12.2 103.458 12.84 103.951 13.68C104.444 14.5067 104.691 15.5 104.691 16.66C104.691 16.78 104.684 16.92 104.671 17.08C104.658 17.2267 104.644 17.3667 104.631 17.5H95.8909V15.68H102.991L101.791 16.22C101.791 15.66 101.678 15.1733 101.451 14.76C101.224 14.3467 100.911 14.0267 100.511 13.8C100.111 13.56 99.6443 13.44 99.1109 13.44C98.5776 13.44 98.1043 13.56 97.6909 13.8C97.2909 14.0267 96.9776 14.3533 96.7509 14.78C96.5243 15.1933 96.4109 15.6867 96.4109 16.26V16.74C96.4109 17.3267 96.5376 17.8467 96.7909 18.3C97.0576 18.74 97.4243 19.08 97.8909 19.32C98.3709 19.5467 98.9309 19.66 99.5709 19.66C100.144 19.66 100.644 19.5733 101.071 19.4C101.511 19.2267 101.911 18.9667 102.271 18.62L103.931 20.42C103.438 20.98 102.818 21.4133 102.071 21.72C101.324 22.0133 100.464 22.16 99.4909 22.16ZM107.948 22.16C107.415 22.16 106.955 21.98 106.568 21.62C106.195 21.2467 106.008 20.7733 106.008 20.2C106.008 19.6267 106.195 19.1667 106.568 18.82C106.955 18.46 107.415 18.28 107.948 18.28C108.495 18.28 108.955 18.46 109.328 18.82C109.701 19.1667 109.888 19.6267 109.888 20.2C109.888 20.7733 109.701 21.2467 109.328 21.62C108.955 21.98 108.495 22.16 107.948 22.16Z"
        fill="black" />
</svg>
    