<svg width="30" height="30" viewBox="0 0 30 30" fill="none" xmlns="http://www.w3.org/2000/svg">
<path d="M24.5331 9.85786C24.5483 10.0711 24.5483 10.2843 24.5483 10.4975C24.5483 17 19.5991 24.4924 10.5533 24.4924C7.7665 24.4924 5.17768 23.6853 3 22.2843C3.39595 22.33 3.77663 22.3452 4.18782 22.3452C6.48728 22.3452 8.60407 21.5686 10.2944 20.2437C8.13199 20.198 6.31979 18.7818 5.69542 16.8325C6.00001 16.8782 6.30456 16.9086 6.62439 16.9086C7.066 16.9086 7.50766 16.8477 7.9188 16.7412C5.66499 16.2843 3.97458 14.3046 3.97458 11.9137V11.8528C4.62938 12.2183 5.39087 12.4467 6.19792 12.4772C4.87304 11.5939 4.00505 10.0863 4.00505 8.38069C4.00505 7.46699 4.24866 6.62943 4.67508 5.89846C7.09642 8.88323 10.736 10.8324 14.8172 11.0457C14.7411 10.6802 14.6954 10.2995 14.6954 9.9188C14.6954 7.2081 16.8883 5 19.6142 5C21.0304 5 22.3096 5.59391 23.2081 6.5533C24.3198 6.34011 25.3858 5.92893 26.33 5.36549C25.9644 6.50765 25.1878 7.46704 24.1675 8.07614C25.1574 7.96959 26.1168 7.69542 27 7.31474C26.3301 8.28933 25.4924 9.15731 24.5331 9.85786Z" fill="#98A4B1"/>
</svg>
