<svg width="30" height="30" viewBox="0 0 30 30" fill="none" xmlns="http://www.w3.org/2000/svg">
<path d="M26.9776 9.00038C26.6901 7.91777 25.8429 7.06514 24.7673 6.77579C22.8177 6.25 15 6.25 15 6.25C15 6.25 7.18232 6.25 5.23266 6.77579C4.15706 7.06518 3.30992 7.91777 3.0224 9.00038C2.5 10.9627 2.5 15.0568 2.5 15.0568C2.5 15.0568 2.5 19.151 3.0224 21.1132C3.30992 22.1959 4.15706 23.013 5.23266 23.3023C7.18232 23.8281 15 23.8281 15 23.8281C15 23.8281 22.8177 23.8281 24.7673 23.3023C25.8429 23.013 26.6901 22.1959 26.9776 21.1132C27.5 19.151 27.5 15.0568 27.5 15.0568C27.5 15.0568 27.5 10.9627 26.9776 9.00038ZM12.4432 18.774V11.3396L18.9772 15.0569L12.4432 18.774Z" fill="#98A4B1"/>
</svg>
